# xmcd
#
# Track frame offsets:
#	150
#	9642
#	20282
#	30760
#	44135
#	57762
#	68352
#	77857
#	88452
#	100617
#	110540
#	121982
#	134945
#	144775
#	157432
#	166630
#	178735
#	189120
#	205387
#	216730
#
# Disc length: 3052 seconds
#
# Revision: 1
# Processed by: cddbd v1.5.1PL0 Copyright (c) Steve Scherf et al.
# Submitted via: audiograbber 1.83.01
#
DISCID=1a0bea14
DTITLE=John Grenell - Welcome To My World
DYEAR=1999
DGENRE=Country
TTITLE0=Welcome To My World
TTITLE1=He'll Have To Go
TTITLE2=What Would You Do?
TTITLE3=Four Walls
TTITLE4=Have You Ever Been Lonely?
TTITLE5=Am I Losing You
TTITLE6=I Know One
TTITLE7=Is It Really Over
TTITLE8=Blue Side Of Lonesome
TTITLE9=Snowflake
TTITLE10=I Missed Me
TTITLE11=Distant Drums
TTITLE12=When Two Worlds Collide
TTITLE13=I Love You Because
TTITLE14=I Won't Forget You
TTITLE15=Love Is No Excuse
TTITLE16=You're The Only Good Thing
TTITLE17=The Blizzard
TTITLE18=Adios Amigo
TTITLE19=God Be With You
EXTD=
EXTT0=
EXTT1=
EXTT2=
EXTT3=
EXTT4=
EXTT5=
EXTT6=
EXTT7=
EXTT8=
EXTT9=
EXTT10=
EXTT11=
EXTT12=
EXTT13=
EXTT14=
EXTT15=
EXTT16=
EXTT17=
EXTT18=
EXTT19=
PLAYORDER=
